<svg width="56" height="56" viewBox="0 0 56 56" fill="none" xmlns="http://www.w3.org/2000/svg">
<g clip-path="url(#clip0_210_1313)">
<path d="M28.0003 28.9727C31.5447 28.9727 39.8781 24.7073 39.8781 14.4863C39.8781 13.0606 39.8434 11.6834 39.7259 10.3821C39.533 7.82105 39.0085 5.55146 37.7024 3.81194C36.0274 1.44509 33.0963 0 28.0003 0C22.9052 0 19.9745 1.44465 18.2994 3.81062C16.9926 5.55028 16.4677 7.82076 16.2748 10.3826C16.1574 11.6837 16.1226 13.0607 16.1226 14.4863C16.1226 24.7073 24.4559 28.9727 28.0003 28.9727ZM23.5976 4.79057C23.8565 4.31646 24.3523 4.0216 24.8915 4.02101C25.5133 4.02101 26.0454 4.40667 26.2635 4.95012H29.7356C29.8087 4.76677 29.9183 4.5984 30.0619 4.45457C30.34 4.17542 30.7107 4.0213 31.1047 4.02086C31.6457 4.02072 32.1415 4.31396 32.4011 4.78631C32.4164 4.81393 32.4158 4.84713 32.3996 4.87431C32.3838 4.90149 32.3545 4.91809 32.3232 4.91809L31.0064 4.9203C30.9832 4.97583 30.939 5.12995 30.9396 5.49724C30.9402 5.86454 30.985 6.01851 31.0085 6.0739L32.3253 6.07184C32.3569 6.07199 32.3855 6.08859 32.4017 6.11562C32.418 6.14266 32.4183 6.17616 32.4035 6.20378C32.1443 6.67759 31.6485 6.97275 31.1093 6.97333L31.1072 6.97304C30.4871 6.97304 29.9554 6.58767 29.7373 6.04393H26.2652C26.1921 6.22728 26.0827 6.3958 25.9392 6.53948C25.6611 6.81863 25.2904 6.97289 24.8961 6.97363H24.8937C24.3554 6.97363 23.8593 6.68038 23.5995 6.20804C23.5843 6.18042 23.5851 6.14692 23.601 6.11988C23.6167 6.09285 23.6461 6.07596 23.6775 6.07596L24.9941 6.0739C25.0173 6.01851 25.0618 5.86439 25.0609 5.4971C25.0603 5.12966 25.0155 4.97568 24.992 4.9203L23.6752 4.9225C23.6439 4.92221 23.615 4.90575 23.5988 4.87872C23.5831 4.85169 23.5825 4.81848 23.5976 4.79057ZM17.8897 12.2702C18.0265 12.5696 18.6078 13.7203 19.5077 13.8281C20.5422 13.9521 22.2592 10.1645 28.0003 10.1554C33.7413 10.1647 35.4585 13.9521 36.4929 13.8281C37.3928 13.7201 37.9742 12.5695 38.111 12.2702C38.1389 13.0036 38.149 13.746 38.149 14.4863C38.149 19.4824 35.943 22.578 34.0923 24.295C31.7604 26.4585 29.1716 27.2438 28.0003 27.2438C26.8291 27.2438 24.2401 26.4585 21.9084 24.295C20.0576 22.578 17.8516 19.4824 17.8516 14.4863C17.8516 13.746 17.8618 13.0036 17.8897 12.2702Z" fill="#223A52"/>
<path d="M50.0516 43.8297C49.4452 40.0592 48.1969 35.2023 45.6928 33.476C43.9835 32.2975 38.0194 29.111 35.4726 27.7504L35.4258 27.7256C35.1347 27.57 34.7791 27.6011 34.5194 27.8051C33.1848 28.8527 31.7229 29.5588 30.1744 29.9035C29.9008 29.9645 29.6763 30.1588 29.5769 30.4208L28 34.5773L26.4231 30.4208C26.3237 30.1588 26.0992 29.9643 25.8256 29.9035C24.2771 29.5588 22.8153 28.8527 21.4806 27.8051C21.2209 27.6011 20.8654 27.5698 20.5742 27.7256C18.0569 29.0708 12.0179 32.3232 10.3147 33.471C7.43216 35.4131 6.1719 42.4408 5.94858 43.8299C5.9264 43.9677 5.93918 44.1086 5.98575 44.2402C6.07008 44.4781 7.85353 49.0843 18.9995 50.7649C19.9737 52.4678 21.4289 53.884 23.169 54.8047C24.6473 55.5869 26.3219 56.0003 28.0121 56.0003C28.6739 56.0003 29.3365 55.9367 29.9818 55.8112C32.2123 55.3772 34.2722 54.1919 35.7821 52.4734C36.2461 51.9454 36.6523 51.3718 36.9976 50.7653C48.146 49.0849 49.9299 44.4781 50.0143 44.2402C50.061 44.1084 50.0738 43.9674 50.0516 43.8297ZM36.8652 46.1377C36.7565 48.1101 35.9744 50.0129 34.6705 51.4965C33.3815 52.9638 31.6171 53.9853 29.6993 54.3585C29.1424 54.4669 28.5771 54.5204 28.0122 54.5204C26.5736 54.5204 25.1386 54.1727 23.8613 53.4967C22.1482 52.5902 20.7537 51.122 19.9389 49.3631C19.092 47.5347 18.8971 45.4313 19.389 43.477C19.8641 41.5875 20.9748 39.884 22.502 38.676C24.0602 37.4435 26.0132 36.7641 27.9999 36.7641C28.888 36.7641 29.7752 36.8968 30.6234 37.1598C32.4803 37.735 34.12 38.9309 35.2447 40.5153C36.4011 42.1444 36.9751 44.1431 36.8652 46.1377Z" fill="#223A52"/>
<path d="M29.3926 45.6429C30.2227 45.8073 31.0479 46.0541 31.8219 46.3974C32.5697 46.7292 33.2398 47.1973 33.9351 47.6216C33.9829 47.6511 34.0312 47.6795 34.0796 47.7081C34.2998 47.0598 34.421 46.3657 34.421 45.6429C34.421 44.92 34.2998 44.226 34.0796 43.5776C33.3672 44.0028 32.6899 44.4872 31.9347 44.8372C31.13 45.2105 30.262 45.4708 29.3926 45.6429Z" fill="#BDC4CB"/>
<path d="M33.9353 47.6216C33.781 47.5274 34.0183 47.6725 33.9353 47.6216V47.6216Z" fill="#223A52"/>
<path d="M24.1782 46.3974C24.9523 46.0541 25.7773 45.8072 26.6075 45.6428C25.7253 45.4683 24.8429 45.2031 24.0278 44.8198C23.2876 44.4715 22.6212 43.9957 21.9205 43.5775C21.7003 44.2258 21.5791 44.92 21.5791 45.6428C21.5791 46.3657 21.7003 47.0599 21.9205 47.7082C21.9687 47.6794 22.0172 47.6511 22.0648 47.6215C22.7603 47.1972 23.4309 46.7291 24.1782 46.3974Z" fill="#B4BCC4"/>
<path d="M22.0649 47.6216C21.9822 47.6725 22.2192 47.5274 22.0649 47.6216V47.6216Z" fill="#223A52"/>
<path d="M29.1804 39.332C29.2016 40.172 29.2937 41.0107 29.2242 41.8507C29.1488 42.76 28.942 43.6721 28.6484 44.5349C29.2537 43.8578 29.9454 43.2327 30.6984 42.7221C31.3986 42.2476 32.1776 41.9155 32.9224 41.5211C31.985 40.4026 30.6736 39.6095 29.1804 39.332Z" fill="#B4BCC4"/>
<path d="M27.3521 44.5348C27.0584 43.672 26.8517 42.76 26.7762 41.8506C26.707 41.0105 26.7991 40.1719 26.8201 39.3318C25.327 39.6093 24.0158 40.4024 23.0781 41.5207C23.8355 41.922 24.6274 42.2585 25.3367 42.7453C26.0753 43.2525 26.7553 43.8675 27.3521 44.5348Z" fill="#B4BCC4"/>
<path d="M26.7762 49.4351C26.8519 48.5263 27.0576 47.6133 27.3521 46.751C26.7462 47.4279 26.0548 48.0532 25.3019 48.5637C24.602 49.0384 23.8233 49.3704 23.0781 49.7649C24.0156 50.8831 25.327 51.676 26.82 51.9536C26.799 51.1136 26.707 50.2749 26.7762 49.4351Z" fill="#B4BCC4"/>
<path d="M28.6484 46.751C28.943 47.6133 29.1488 48.5261 29.2242 49.4351C29.2937 50.2749 29.2017 51.1136 29.1804 51.9537C30.6734 51.6762 31.9848 50.8831 32.9223 49.7649C32.1652 49.3637 31.3735 49.027 30.6643 48.5404C29.9252 48.0332 29.2455 47.4182 28.6484 46.751Z" fill="#B4BCC4"/>
</g>
<defs>
<clipPath id="clip0_210_1313">
<rect width="56" height="56" fill="white"/>
</clipPath>
</defs>
</svg>
