<svg width="57" height="56" viewBox="0 0 57 56" fill="none" xmlns="http://www.w3.org/2000/svg">
<g opacity="0.2">
<path d="M7.5 28V40.25C7.5 41.1783 7.86875 42.0685 8.52513 42.7249C9.1815 43.3813 10.0717 43.75 11 43.75H14.5C15.4283 43.75 16.3185 43.3813 16.9749 42.7249C17.6313 42.0685 18 41.1783 18 40.25V31.5C18 30.5717 17.6313 29.6815 16.9749 29.0251C16.3185 28.3687 15.4283 28 14.5 28H7.5Z" fill="#223A52"/>
</g>
<g opacity="0.2">
<path d="M49.8185 28H42.8185C41.8902 28 41 28.3687 40.3436 29.0251C39.6872 29.6815 39.3185 30.5717 39.3185 31.5V40.25C39.3185 41.1783 39.6872 42.0685 40.3436 42.7249C41 43.3813 41.8902 43.75 42.8185 43.75H46.3185C47.2467 43.75 48.137 43.3813 48.7934 42.7249C49.4497 42.0685 49.8185 41.1783 49.8185 40.25V28Z" fill="#223A52"/>
</g>
<path d="M44.8452 11.8535C42.7402 9.75218 40.241 8.08714 37.491 6.95394C34.741 5.82074 31.7943 5.2417 28.82 5.25003C28.7666 5.25003 28.7126 5.25025 28.6592 5.25056C28.6055 5.25024 28.5519 5.25006 28.4983 5.25003C22.4649 5.25048 16.6788 7.64755 12.4127 11.914C8.14664 16.1804 5.75 21.9667 5.75 28V40.25C5.75159 41.6419 6.30523 42.9764 7.28945 43.9606C8.27367 44.9448 9.6081 45.4984 11 45.5H14.5C15.8919 45.4984 17.2263 44.9448 18.2106 43.9606C19.1948 42.9764 19.7484 41.6419 19.75 40.25V31.5C19.7484 30.1081 19.1948 28.7737 18.2106 27.7895C17.2263 26.8053 15.8919 26.2516 14.5 26.25H9.32776C9.7676 21.4424 11.9975 16.9754 15.5755 13.7342C19.1535 10.4931 23.8185 8.7144 28.6461 8.75056C28.6551 8.75067 28.6632 8.75067 28.6722 8.75056C33.4999 8.71425 38.165 10.4929 41.7431 13.7341C45.3211 16.9752 47.551 21.4423 47.9908 26.25H42.8185C41.4266 26.2516 40.0922 26.8053 39.108 27.7895C38.1237 28.7737 37.5701 30.1081 37.5685 31.5V40.25C37.5701 41.6419 38.1237 42.9764 39.108 43.9606C40.0922 44.9448 41.4266 45.4984 42.8185 45.5H46.3185C46.9147 45.5002 47.5066 45.3984 48.0685 45.199V45.5C48.0669 46.8919 47.5133 48.2264 46.5291 49.2106C45.5448 50.1948 44.2104 50.7484 42.8185 50.75H30.25C29.7859 50.75 29.3408 50.9344 29.0126 51.2626C28.6844 51.5908 28.5 52.0359 28.5 52.5C28.5 52.9642 28.6844 53.4093 29.0126 53.7375C29.3408 54.0657 29.7859 54.25 30.25 54.25H42.8185C45.1384 54.2474 47.3624 53.3247 49.0028 51.6843C50.6432 50.0439 51.5659 47.8199 51.5685 45.5V28C51.5772 24.9969 50.9871 22.0222 49.8327 19.2498C48.6782 16.4774 46.9827 13.963 44.8452 11.8535ZM14.5 29.75C14.964 29.7506 15.4088 29.9351 15.7369 30.2632C16.0649 30.5912 16.2495 31.0361 16.25 31.5V40.25C16.2495 40.714 16.0649 41.1588 15.7369 41.4869C15.4088 41.815 14.964 41.9995 14.5 42H11C10.536 41.9995 10.0912 41.815 9.76315 41.4869C9.43508 41.1588 9.25053 40.714 9.25 40.25V29.75H14.5ZM46.3185 42H42.8185C42.3545 41.9995 41.9097 41.815 41.5817 41.4869C41.2536 41.1588 41.069 40.714 41.0685 40.25V31.5C41.069 31.0361 41.2536 30.5912 41.5817 30.2632C41.9097 29.9351 42.3545 29.7506 42.8185 29.75H48.0685V40.25C48.068 40.714 47.8834 41.1588 47.5554 41.4869C47.2273 41.815 46.7825 41.9995 46.3185 42Z" fill="#223A52"/>
</svg>
