<svg width="57" height="56" viewBox="0 0 57 56" fill="none" xmlns="http://www.w3.org/2000/svg">
<g clip-path="url(#clip0_20_210)">
<path d="M21.5 56H2.83333C2.21449 56 1.621 55.7542 1.18342 55.3166C0.745833 54.879 0.5 54.2855 0.5 53.6667C0.5 53.0478 0.745833 52.4543 1.18342 52.0168C1.621 51.5792 2.21449 51.3333 2.83333 51.3333H21.5C22.1188 51.3333 22.7123 51.5792 23.1499 52.0168C23.5875 52.4543 23.8333 53.0478 23.8333 53.6667C23.8333 54.2855 23.5875 54.879 23.1499 55.3166C22.7123 55.7542 22.1188 56 21.5 56ZM16.8333 46.6667H2.83333C2.21449 46.6667 1.621 46.4209 1.18342 45.9833C0.745833 45.5457 0.5 44.9522 0.5 44.3334C0.5 43.7145 0.745833 43.121 1.18342 42.6834C1.621 42.2458 2.21449 42 2.83333 42H16.8333C17.4522 42 18.0457 42.2458 18.4832 42.6834C18.9208 43.121 19.1667 43.7145 19.1667 44.3334C19.1667 44.9522 18.9208 45.5457 18.4832 45.9833C18.0457 46.4209 17.4522 46.6667 16.8333 46.6667ZM12.1667 37.3334H2.83333C2.21449 37.3334 1.621 37.0875 1.18342 36.6499C0.745833 36.2123 0.5 35.6189 0.5 35C0.5 34.3812 0.745833 33.7877 1.18342 33.3501C1.621 32.9125 2.21449 32.6667 2.83333 32.6667H12.1667C12.7855 32.6667 13.379 32.9125 13.8166 33.3501C14.2542 33.7877 14.5 34.3812 14.5 35C14.5 35.6189 14.2542 36.2123 13.8166 36.6499C13.379 37.0875 12.7855 37.3334 12.1667 37.3334ZM30.8333 55.895C30.2145 55.9226 29.6101 55.7031 29.153 55.285C28.6959 54.8669 28.4237 54.2844 28.3962 53.6655C28.3686 53.0467 28.588 52.4422 29.0062 51.9852C29.4243 51.5281 30.0068 51.2559 30.6257 51.2283C35.0414 50.8243 39.2506 49.1704 42.7602 46.4604C46.2699 43.7503 48.9347 40.0963 50.4425 35.9264C51.9503 31.7564 52.2387 27.2432 51.2739 22.9152C50.3091 18.5873 48.1311 14.6238 44.9949 11.4891C41.8588 8.35441 37.8943 6.17821 33.5659 5.21542C29.2375 4.25262 24.7244 4.5431 20.5552 6.05283C16.3859 7.56256 12.7332 10.229 10.0247 13.7399C7.31629 17.2508 5.66434 21.4608 5.26233 25.8767C5.23476 26.1819 5.14734 26.4786 5.00507 26.7501C4.8628 27.0215 4.66846 27.2622 4.43316 27.4585C4.19785 27.6548 3.92619 27.8028 3.63367 27.8941C3.34116 27.9855 3.03352 28.0183 2.72833 27.9907C2.42314 27.9631 2.12637 27.8757 1.85496 27.7334C1.58356 27.5911 1.34283 27.3968 1.14652 27.1615C0.950222 26.9262 0.802187 26.6545 0.710874 26.362C0.61956 26.0695 0.586756 25.7619 0.614333 25.4567C1.26507 18.2777 4.65941 11.6263 10.0908 6.88701C15.5221 2.14769 22.572 -0.314359 29.773 0.0133516C36.9739 0.341063 43.771 3.43329 48.7494 8.64635C53.7279 13.8594 56.504 20.7916 56.5 28C56.5358 34.9961 53.9367 41.7494 49.2198 46.9164C44.5028 52.0834 38.0138 55.2855 31.0433 55.8857C30.9733 55.8927 30.901 55.895 30.8333 55.895ZM28.5 14C27.8812 14 27.2877 14.2458 26.8501 14.6834C26.4125 15.121 26.1667 15.7145 26.1667 16.3333V28C26.1668 28.6188 26.4127 29.2122 26.8503 29.6497L33.8503 36.6497C34.2904 37.0747 34.8798 37.3099 35.4916 37.3046C36.1034 37.2993 36.6886 37.0539 37.1212 36.6213C37.5539 36.1886 37.7993 35.6034 37.8046 34.9916C37.8099 34.3798 37.5747 33.7904 37.1497 33.3503L30.8333 27.034V16.3333C30.8333 15.7145 30.5875 15.121 30.1499 14.6834C29.7123 14.2458 29.1188 14 28.5 14Z" fill="#223A52"/>
</g>
<defs>
<clipPath id="clip0_20_210">
<rect width="56" height="56" fill="white" transform="translate(0.5)"/>
</clipPath>
</defs>
</svg>
