<svg width="56" height="56" viewBox="0 0 56 56" fill="none" xmlns="http://www.w3.org/2000/svg">
<g clip-path="url(#clip0_20_163)">
<path d="M28 28.9727C31.5444 28.9727 39.8778 24.7073 39.8778 14.4863C39.8778 13.0606 39.8431 11.6834 39.7256 10.3821C39.5327 7.82105 39.0082 5.55146 37.702 3.81194C36.027 1.44509 33.096 0 28 0C22.9049 0 19.9741 1.44465 18.2991 3.81062C16.9923 5.55028 16.4673 7.82076 16.2744 10.3826C16.1571 11.6837 16.1222 13.0607 16.1222 14.4863C16.1222 24.7073 24.4556 28.9727 28 28.9727ZM23.5973 4.79057C23.8562 4.31646 24.352 4.0216 24.8912 4.02101C25.513 4.02101 26.0451 4.40667 26.2631 4.95012H29.7353C29.8084 4.76677 29.918 4.5984 30.0616 4.45457C30.3397 4.17542 30.7104 4.0213 31.1044 4.02086C31.6453 4.02072 32.1412 4.31396 32.4008 4.78631C32.4161 4.81393 32.4155 4.84713 32.3993 4.87431C32.3835 4.90149 32.3542 4.91809 32.3229 4.91809L31.0061 4.9203C30.9829 4.97583 30.9387 5.12995 30.9392 5.49724C30.9398 5.86454 30.9846 6.01851 31.0082 6.0739L32.325 6.07184C32.3566 6.07199 32.3852 6.08859 32.4014 6.11562C32.4177 6.14266 32.418 6.17616 32.4031 6.20378C32.144 6.67759 31.6481 6.97275 31.1089 6.97333L31.1069 6.97304C30.4867 6.97304 29.955 6.58767 29.737 6.04393H26.2649C26.1917 6.22728 26.0824 6.3958 25.9389 6.53948C25.6608 6.81863 25.2901 6.97289 24.8958 6.97363H24.8934C24.3551 6.97363 23.859 6.68038 23.5992 6.20804C23.5839 6.18042 23.5848 6.14692 23.6007 6.11988C23.6164 6.09285 23.6458 6.07596 23.6772 6.07596L24.9938 6.0739C25.017 6.01851 25.0615 5.86439 25.0606 5.4971C25.06 5.12966 25.0152 4.97568 24.9917 4.9203L23.6749 4.9225C23.6436 4.92221 23.6146 4.90575 23.5985 4.87872C23.5828 4.85169 23.5822 4.81848 23.5973 4.79057ZM17.8894 12.2702C18.0261 12.5696 18.6075 13.7203 19.5074 13.8281C20.5418 13.9521 22.2589 10.1645 28 10.1554C33.741 10.1647 35.4582 13.9521 36.4926 13.8281C37.3925 13.7201 37.9738 12.5695 38.1106 12.2702C38.1385 13.0036 38.1487 13.746 38.1487 14.4863C38.1487 19.4824 35.9427 22.578 34.092 24.295C31.7601 26.4585 29.1712 27.2438 28 27.2438C26.8288 27.2438 24.2398 26.4585 21.908 24.295C20.0573 22.578 17.8513 19.4824 17.8513 14.4863C17.8513 13.746 17.8615 13.0036 17.8894 12.2702Z" fill="#223A52"/>
<path d="M50.0514 43.8297C49.4451 40.0592 48.1967 35.2023 45.6926 33.476C43.9834 32.2975 38.0192 29.111 35.4724 27.7504L35.4257 27.7256C35.1345 27.57 34.779 27.6011 34.5192 27.8051C33.1846 28.8527 31.7228 29.5588 30.1742 29.9035C29.9007 29.9645 29.6762 30.1588 29.5767 30.4208L27.9998 34.5773L26.423 30.4208C26.3235 30.1588 26.099 29.9643 25.8255 29.9035C24.2769 29.5588 22.8151 28.8527 21.4805 27.8051C21.2207 27.6011 20.8652 27.5698 20.574 27.7256C18.0567 29.0708 12.0178 32.3232 10.3146 33.471C7.43201 35.4131 6.17175 42.4408 5.94843 43.8299C5.92625 43.9677 5.93903 44.1086 5.9856 44.2402C6.06993 44.4781 7.85337 49.0843 18.9993 50.7649C19.9736 52.4678 21.4288 53.884 23.1689 54.8047C24.6472 55.5869 26.3217 56.0003 28.0119 56.0003C28.6738 56.0003 29.3364 55.9367 29.9816 55.8112C32.2121 55.3772 34.2721 54.1919 35.782 52.4734C36.2459 51.9454 36.6522 51.3718 36.9974 50.7653C48.1459 49.0849 49.9298 44.4781 50.0141 44.2402C50.0608 44.1084 50.0736 43.9674 50.0514 43.8297ZM36.8651 46.1377C36.7563 48.1101 35.9743 50.0129 34.6704 51.4965C33.3813 52.9638 31.617 53.9853 29.6991 54.3585C29.1423 54.4669 28.5769 54.5204 28.012 54.5204C26.5734 54.5204 25.1385 54.1727 23.8612 53.4967C22.1481 52.5902 20.7535 51.122 19.9387 49.3631C19.0919 47.5347 18.8969 45.4313 19.3888 43.477C19.864 41.5875 20.9747 39.884 22.5019 38.676C24.0601 37.4435 26.0131 36.7641 27.9997 36.7641C28.8878 36.7641 29.7751 36.8968 30.6232 37.1598C32.4801 37.735 34.1199 38.9309 35.2445 40.5153C36.4009 42.1444 36.9749 44.1431 36.8651 46.1377Z" fill="#223A52"/>
<path d="M29.3926 45.6429C30.2227 45.8073 31.048 46.0541 31.8219 46.3974C32.5697 46.7292 33.2398 47.1973 33.9352 47.6216C33.983 47.6511 34.0313 47.6795 34.0796 47.7081C34.2999 47.0598 34.4211 46.3657 34.4211 45.6429C34.4211 44.92 34.2999 44.226 34.0796 43.5776C33.3672 44.0028 32.6899 44.4872 31.9348 44.8372C31.1301 45.2105 30.2621 45.4708 29.3926 45.6429Z" fill="#BDC4CB"/>
<path d="M33.9352 47.6216C33.7809 47.5274 34.0182 47.6725 33.9352 47.6216V47.6216Z" fill="#223A52"/>
<path d="M24.1781 46.3974C24.9522 46.0541 25.7771 45.8072 26.6074 45.6428C25.7251 45.4683 24.8427 45.2031 24.0276 44.8198C23.2874 44.4715 22.621 43.9957 21.9204 43.5775C21.7001 44.2258 21.5789 44.92 21.5789 45.6428C21.5789 46.3657 21.7001 47.0599 21.9204 47.7082C21.9686 47.6794 22.017 47.6511 22.0646 47.6215C22.7601 47.1972 23.4307 46.7291 24.1781 46.3974Z" fill="#B4BCC4"/>
<path d="M22.0646 47.6216C21.9819 47.6725 22.2189 47.5274 22.0646 47.6216V47.6216Z" fill="#223A52"/>
<path d="M29.1802 39.332C29.2014 40.172 29.2935 41.0107 29.224 41.8507C29.1486 42.76 28.9417 43.6721 28.6482 44.5349C29.2535 43.8578 29.9452 43.2327 30.6982 42.7221C31.3984 42.2476 32.1773 41.9155 32.9222 41.5211C31.9847 40.4026 30.6733 39.6095 29.1802 39.332Z" fill="#B4BCC4"/>
<path d="M27.3518 44.5348C27.0581 43.672 26.8514 42.76 26.7759 41.8506C26.7067 41.0105 26.7988 40.1719 26.8198 39.3318C25.3267 39.6093 24.0154 40.4024 23.0778 41.5207C23.8352 41.922 24.627 42.2585 25.3364 42.7453C26.0749 43.2525 26.755 43.8675 27.3518 44.5348Z" fill="#B4BCC4"/>
<path d="M26.7759 49.4351C26.8515 48.5263 27.0572 47.6133 27.3518 46.751C26.7459 47.4279 26.0545 48.0532 25.3015 48.5637C24.6016 49.0384 23.823 49.3704 23.0778 49.7649C24.0153 50.8831 25.3267 51.676 26.8197 51.9536C26.7986 51.1136 26.7067 50.2749 26.7759 49.4351Z" fill="#B4BCC4"/>
<path d="M28.6483 46.751C28.9429 47.6133 29.1488 48.5261 29.2241 49.4351C29.2936 50.2749 29.2016 51.1136 29.1803 51.9537C30.6733 51.6762 31.9847 50.8831 32.9222 49.7649C32.1651 49.3637 31.3734 49.027 30.6642 48.5404C29.9251 48.0332 29.2454 47.4182 28.6483 46.751Z" fill="#B4BCC4"/>
</g>
<defs>
<clipPath id="clip0_20_163">
<rect width="56" height="56" fill="white"/>
</clipPath>
</defs>
</svg>
