<svg width="32" height="32" viewBox="0 0 32 32" fill="none" xmlns="http://www.w3.org/2000/svg">
<g clip-path="url(#clip0_204_1112)">
<path fill-rule="evenodd" clip-rule="evenodd" d="M7.68427 6.82265C8.99236 5.44543 9.45557 5.05912 10.0125 4.88069C10.3984 4.77931 10.8034 4.77335 11.1922 4.86336C11.7039 5.01234 11.8375 5.12495 13.5169 6.7932C14.9915 8.25876 15.1372 8.41814 15.2794 8.69878C15.5546 9.2039 15.5988 9.8028 15.4009 10.3427C15.2552 10.7498 15.04 11.02 14.1466 11.9174L13.5637 12.5012C13.4104 12.6566 13.374 12.8927 13.4735 13.0867C14.7675 15.2913 16.603 17.13 18.8064 18.4293C19.0606 18.5655 19.3737 18.5213 19.5802 18.3202L20.1405 17.7693C20.4868 17.4145 20.8536 17.0801 21.2387 16.768C21.8428 16.3948 22.5969 16.3588 23.2338 16.6727C23.5443 16.8182 23.6484 16.9135 25.1699 18.4276C26.7313 19.9867 26.7816 20.0369 26.9568 20.3955C27.284 20.9895 27.2807 21.7102 26.9481 22.3011C26.7746 22.6337 26.6775 22.755 25.7962 23.654C25.2636 24.198 24.7553 24.6935 24.6824 24.7662C23.9546 25.367 23.0216 25.662 22.0801 25.5891C20.3577 25.4318 18.6909 24.8996 17.1965 24.03C13.8844 22.2777 11.0649 19.7244 8.99583 16.6034C8.54336 15.951 8.14089 15.2653 7.79183 14.5523C6.86179 12.9603 6.38097 11.1463 6.40047 9.30337C6.47042 8.33589 6.93441 7.43929 7.68427 6.82265Z" stroke="#5C5C5C" stroke-width="2" stroke-linecap="round" stroke-linejoin="round"/>
<path d="M22.79 0.0755954C22.1246 -0.163207 21.3918 0.182565 21.1529 0.84791C20.9141 1.51324 21.2599 2.24618 21.9253 2.48498L22.79 0.0755954ZM29.5226 9.95519C29.7726 10.6165 30.5113 10.9498 31.1726 10.6998C31.8337 10.4498 32.1672 9.71116 31.9171 9.04995L29.5226 9.95519ZM20.7624 3.87672C20.0728 3.72101 19.3876 4.15373 19.2319 4.84326C19.0761 5.53278 19.5089 6.21799 20.1984 6.37372L20.7624 3.87672ZM25.7388 11.8225C25.906 12.5094 26.5984 12.9306 27.2851 12.7634C27.972 12.5961 28.3932 11.9039 28.2261 11.217L25.7388 11.8225ZM21.9253 2.48498C25.4292 3.74265 28.206 6.47292 29.5226 9.95519L31.9171 9.04995C30.3355 4.86648 26.9996 1.58648 22.79 0.0755954L21.9253 2.48498ZM20.1984 6.37372C22.9301 6.99063 25.0765 9.10157 25.7388 11.8225L28.2261 11.217C27.3338 7.55155 24.4421 4.70779 20.7624 3.87672L20.1984 6.37372Z" fill="#5C5C5C"/>
</g>
<defs>
<clipPath id="clip0_204_1112">
<rect width="32" height="32" fill="white"/>
</clipPath>
</defs>
</svg>
