<svg width="32" height="32" viewBox="0 0 32 32" fill="none" xmlns="http://www.w3.org/2000/svg">
<path fill-rule="evenodd" clip-rule="evenodd" d="M16.3797 25.3247C16.2089 25.45 16.0497 25.5637 15.9043 25.6657C15.7491 25.5628 15.5769 25.4444 15.3903 25.3109C14.5101 24.6812 13.3687 23.7568 12.2445 22.6039C9.93869 20.2389 8 17.2201 8 14C8 9.58172 11.5817 6 16 6C20.4183 6 24 9.58172 24 14C24 17.1856 21.9759 20.1957 19.5857 22.5857C18.4261 23.7455 17.2592 24.6799 16.3797 25.3247ZM26 14C26 22 16 28 16 28C15.5 28 6 22 6 14C6 8.47715 10.4771 4 16 4C21.5228 4 26 8.47715 26 14ZM18 14C18 15.1045 17.1045 16 16 16C14.8955 16 14 15.1045 14 14C14 12.8954 14.8955 12 16 12C17.1045 12 18 12.8954 18 14ZM20 14C20 16.2092 18.2092 18 16 18C13.7908 18 12 16.2092 12 14C12 11.7909 13.7908 10 16 10C18.2092 10 20 11.7909 20 14Z" fill="#5C5C5C"/>
</svg>
