<svg width="64" height="64" viewBox="0 0 64 64" fill="none" xmlns="http://www.w3.org/2000/svg">
<g opacity="0.2">
<path d="M8 32V46C8 47.0609 8.42143 48.0783 9.17157 48.8284C9.92172 49.5786 10.9391 50 12 50H16C17.0609 50 18.0783 49.5786 18.8284 48.8284C19.5786 48.0783 20 47.0609 20 46V36C20 34.9391 19.5786 33.9217 18.8284 33.1716C18.0783 32.4214 17.0609 32 16 32H8Z" fill="#F9A743"/>
</g>
<g opacity="0.2">
<path d="M56.364 32H48.364C47.3031 32 46.2857 32.4214 45.5356 33.1716C44.7854 33.9217 44.364 34.9391 44.364 36V46C44.364 47.0609 44.7854 48.0783 45.5356 48.8284C46.2857 49.5786 47.3031 50 48.364 50H52.364C53.4249 50 54.4423 49.5786 55.1924 48.8284C55.9426 48.0783 56.364 47.0609 56.364 46V32Z" fill="#F9A743"/>
</g>
<path d="M50.6802 13.5469C48.2745 11.1453 45.4183 9.24239 42.2754 7.94731C39.1326 6.65222 35.7649 5.99046 32.3657 5.99998C32.3047 5.99998 32.2429 6.00023 32.1819 6.00059C32.1206 6.00022 32.0593 6.00002 31.998 5.99998C25.1028 6.0005 18.4901 8.74001 13.6145 13.6159C8.73902 18.4918 6 25.1047 6 32V46C6.00182 47.5907 6.63454 49.1158 7.75937 50.2406C8.88419 51.3654 10.4093 51.9982 12 52H16C17.5907 51.9982 19.1158 51.3654 20.2406 50.2406C21.3655 49.1158 21.9982 47.5907 22 46V36C21.9982 34.4092 21.3655 32.8842 20.2406 31.7593C19.1158 30.6345 17.5907 30.0018 16 30H10.0889C10.5915 24.5055 13.14 19.4004 17.2291 15.6962C21.3183 11.9921 26.6497 9.95926 32.167 10.0006C32.1773 10.0007 32.1865 10.0007 32.1968 10.0006C37.7141 9.95909 43.0457 11.9919 47.1349 15.696C51.2241 19.4002 53.7726 24.5054 54.2752 30H48.364C46.7733 30.0018 45.2482 30.6345 44.1234 31.7593C42.9986 32.8842 42.3658 34.4092 42.364 36V46C42.3658 47.5907 42.9986 49.1158 44.1234 50.2406C45.2482 51.3654 46.7733 51.9982 48.364 52H52.364C53.0454 52.0002 53.7219 51.8839 54.364 51.656V52C54.3622 53.5907 53.7295 55.1158 52.6046 56.2406C51.4798 57.3654 49.9548 57.9982 48.364 58H34C33.4696 58 32.9609 58.2107 32.5858 58.5858C32.2107 58.9608 32 59.4696 32 60C32 60.5304 32.2107 61.0391 32.5858 61.4142C32.9609 61.7893 33.4696 62 34 62H48.364C51.0153 61.997 53.557 60.9424 55.4318 59.0677C57.3065 57.193 58.361 54.6512 58.364 52V32C58.3739 28.5678 57.6995 25.1682 56.3802 21.9997C55.0608 18.8313 53.1231 15.9576 50.6802 13.5469ZM16 34C16.5302 34.0006 17.0386 34.2115 17.4135 34.5864C17.7885 34.9614 17.9994 35.4697 18 36V46C17.9994 46.5302 17.7885 47.0386 17.4135 47.4135C17.0386 47.7885 16.5302 47.9994 16 48H12C11.4698 47.9994 10.9614 47.7885 10.5865 47.4135C10.2115 47.0386 10.0006 46.5302 10 46V34H16ZM52.364 48H48.364C47.8338 47.9994 47.3254 47.7885 46.9505 47.4135C46.5755 47.0386 46.3646 46.5302 46.364 46V36C46.3646 35.4697 46.5755 34.9614 46.9505 34.5864C47.3254 34.2115 47.8338 34.0006 48.364 34H54.364V46C54.3634 46.5302 54.1525 47.0386 53.7776 47.4135C53.4026 47.7885 52.8943 47.9994 52.364 48Z" fill="#223A52"/>
</svg>
