<svg width="191" height="199" viewBox="0 0 191 199" fill="none" xmlns="http://www.w3.org/2000/svg">
<g clip-path="url(#clip0_137_631)">
<path d="M104.348 62.0446C102.595 63.7897 102.589 66.6249 104.334 68.3782C106.079 70.1314 108.915 70.1375 110.667 68.3919L114.373 64.7014C115.707 63.374 116.068 61.3552 115.278 59.6476C112.823 54.3396 111.584 48.8513 111.597 43.3345C111.623 32.1035 116.536 21.5368 124.8 14.2473L124.746 43.5625C124.743 45.0309 125.461 46.4078 126.666 47.2467L147.88 62.0087C149.41 63.0736 151.441 63.0792 152.977 62.0214L174.266 47.3653C175.477 46.5316 176.202 45.1571 176.205 43.6864L176.27 14.3731C184.498 21.694 189.363 32.2749 189.34 43.4965C189.316 53.8815 185.25 63.6361 177.89 70.963C170.537 78.2846 160.776 82.3018 150.401 82.2778C150.391 82.2778 150.381 82.2778 150.371 82.2778C146.801 82.2668 139.798 80.5224 137.401 79.851C135.846 79.4148 134.177 79.8502 133.033 80.9887L119.386 94.5724C117.634 96.3171 117.627 99.1527 119.372 100.906C120.244 101.782 121.389 102.222 122.535 102.225C123.681 102.228 124.829 101.793 125.705 100.921L137.534 89.1459C140.822 89.9673 146.475 91.2226 150.343 91.2342C150.356 91.2343 150.368 91.2343 150.381 91.2343C163.146 91.2634 175.16 86.319 184.209 77.3099C193.263 68.2955 198.266 56.2945 198.296 43.5163C198.331 26.3046 189.029 10.3225 174.02 1.80637C172.635 1.02081 170.938 1.02897 169.561 1.82874C168.184 2.62851 167.335 4.099 167.332 5.69147L167.253 41.3191L150.45 52.8861L133.708 41.2339L133.773 5.60354C133.775 4.01152 132.933 2.53756 131.56 1.73232C130.187 0.926639 128.489 0.911516 127.101 1.69111C112.054 10.1453 102.681 26.0941 102.641 43.3134C102.628 49.1297 103.725 54.894 105.908 60.492L104.348 62.0446Z" fill="#F1F1F1" fill-opacity="0.5"/>
<path d="M92.3523 121.483L30.0854 183.465C27.7455 185.795 24.6391 187.075 21.3386 187.07C21.3363 187.07 21.3346 187.07 21.3319 187.07C18.0323 187.062 14.9314 185.768 12.6027 183.429C10.2745 181.087 8.99823 177.977 9.00992 174.669C9.02113 171.372 10.314 168.28 12.6561 165.956L66.2138 112.641C67.9666 110.896 67.9732 108.061 66.2285 106.307C64.4837 104.555 61.6481 104.548 59.8953 106.293L6.34347 159.603C2.30735 163.607 0.0737692 168.947 0.0538843 174.638C0.0339777 180.34 2.23518 185.704 6.25359 189.746C10.272 193.783 15.6193 196.013 21.3111 196.026C21.3152 196.026 21.3192 196.026 21.3228 196.026C27.0151 196.036 32.3717 193.829 36.4052 189.812L98.6708 127.831C100.424 126.086 100.43 123.251 98.6854 121.498C96.9403 119.745 94.1051 119.739 92.3523 121.483Z" fill="#F1F1F1" fill-opacity="0.5"/>
<path d="M21.3095 169.26C19.8343 169.258 18.4474 169.831 17.4222 170.857C15.2646 172.991 15.2457 176.487 17.38 178.648C17.3854 178.654 17.3907 178.659 17.3961 178.665C18.4662 179.737 19.8729 180.276 21.2831 180.279C22.6964 180.282 24.1132 179.747 25.1963 178.671C27.3446 176.523 27.3464 173.027 25.2094 170.887C24.1706 169.841 22.7873 169.264 21.313 169.26C21.3121 169.26 21.3108 169.26 21.3095 169.26Z" fill="#F1F1F1" fill-opacity="0.5"/>
<path d="M167.776 146.897C167.313 146.432 166.754 146.075 166.139 145.85L153.307 141.164L107.025 94.6661L114.54 87.1859C116.293 85.4412 116.3 82.6056 114.555 80.8523C113.231 79.5228 111.279 79.1976 109.648 79.8808L39.644 9.56044C35.4102 5.29315 29.7641 2.93168 23.7458 2.91059C23.7369 2.91057 23.7288 2.91055 23.7198 2.91053C17.7015 2.89661 12.0392 5.22386 7.77277 9.46566C3.50096 13.7178 1.1426 19.3764 1.13224 25.3997C1.12146 31.418 3.45542 37.0822 7.70305 41.3472L77.7078 111.673C77.017 113.301 77.3323 115.254 78.6565 116.585C80.4017 118.337 83.2373 118.345 84.9897 116.599L92.5032 109.121L138.786 155.617L143.413 168.471C143.635 169.087 143.99 169.648 144.452 170.113L170.422 196.202C171.294 197.078 172.439 197.519 173.585 197.521C174.731 197.524 175.879 197.089 176.755 196.217L193.73 179.32C194.572 178.482 195.047 177.344 195.049 176.156C195.052 174.969 194.583 173.829 193.745 172.987L167.776 146.897ZM97.5319 91.4775C97.5225 91.4869 97.5126 91.4972 97.5032 91.5066L83.8241 105.122L14.0499 35.0278C11.4889 32.4563 10.0822 29.0429 10.0888 25.4159C10.0954 21.7867 11.5166 18.3767 14.0895 15.8157C16.6592 13.2605 20.0713 11.8591 23.6991 11.8675C23.7045 11.8675 23.7099 11.8675 23.7148 11.8675C27.339 11.8799 30.7374 13.3011 33.2904 15.874L103.068 85.9677L97.5611 91.4489C97.5516 91.4583 97.5418 91.4677 97.5319 91.4775ZM173.61 186.71L151.503 164.5L146.876 151.647C146.654 151.03 146.299 150.469 145.836 150.004L98.8514 102.802L100.677 100.985L147.662 148.188C148.125 148.652 148.684 149.01 149.299 149.235L162.131 153.921L184.238 176.131L173.61 186.71Z" fill="#F1F1F1" fill-opacity="0.5"/>
<path d="M26.8197 22.2612C25.075 20.5088 22.2394 20.5023 20.4866 22.2465C18.7338 23.9912 18.7272 26.8269 20.4719 28.5801L82.1069 90.5005C82.9791 91.3767 84.1245 91.8169 85.2705 91.8195C86.4165 91.8222 87.5639 91.3873 88.4401 90.5152C90.1929 88.7704 90.1994 85.9348 88.4547 84.1816L26.8197 22.2612Z" fill="#F1F1F1" fill-opacity="0.5"/>
</g>
<defs>
<clipPath id="clip0_137_631">
<rect width="197.939" height="197.939" fill="white" transform="translate(0.457886) rotate(0.132547)"/>
</clipPath>
</defs>
</svg>
