<svg width="64" height="64" viewBox="0 0 64 64" fill="none" xmlns="http://www.w3.org/2000/svg">
<path d="M41.3333 14.6667C41.3333 18.6667 37.1546 24 32 24C26.8453 24 22.6666 18.6667 22.6666 14.6667H41.3333Z" fill="#F9A743"/>
<path d="M41.3333 49.3333C41.3333 46.858 40.3499 44.484 38.5996 42.7337C36.8493 40.9833 34.4753 40 32 40C29.5246 40 27.1506 40.9833 25.4003 42.7337C23.65 44.484 22.6666 46.858 22.6666 49.3333H41.3333Z" fill="#F9A743"/>
<path d="M50.6667 14.6667V13.3333C50.6667 12.6261 50.9476 11.9478 51.4477 11.4477C51.9478 10.9476 52.6261 10.6667 53.3333 10.6667C54.0406 10.6667 54.7189 10.3857 55.219 9.88562C55.7191 9.38552 56 8.70724 56 8V2.66667C56 1.95942 55.7191 1.28114 55.219 0.781047C54.7189 0.28095 54.0406 0 53.3333 0H10.6667C9.95942 0 9.28114 0.28095 8.78105 0.781047C8.28095 1.28114 8 1.95942 8 2.66667V8C8 8.70724 8.28095 9.38552 8.78105 9.88562C9.28114 10.3857 9.95942 10.6667 10.6667 10.6667C11.3739 10.6667 12.0522 10.9476 12.5523 11.4477C13.0524 11.9478 13.3333 12.6261 13.3333 13.3333V14.6667C13.3389 18.4023 14.4641 22.0505 16.5637 25.1402C18.6633 28.23 21.6409 30.6194 25.112 32C21.6409 33.3806 18.6633 35.77 16.5637 38.8598C14.4641 41.9495 13.3389 45.5977 13.3333 49.3333V50.6667C13.3333 51.3739 13.0524 52.0522 12.5523 52.5523C12.0522 53.0524 11.3739 53.3333 10.6667 53.3333C9.95942 53.3333 9.28114 53.6143 8.78105 54.1144C8.28095 54.6145 8 55.2928 8 56V61.3333C8 62.0406 8.28095 62.7189 8.78105 63.219C9.28114 63.7191 9.95942 64 10.6667 64H53.3333C54.0406 64 54.7189 63.7191 55.219 63.219C55.7191 62.7189 56 62.0406 56 61.3333V56C56 55.2928 55.7191 54.6145 55.219 54.1144C54.7189 53.6143 54.0406 53.3333 53.3333 53.3333C52.6261 53.3333 51.9478 53.0524 51.4477 52.5523C50.9476 52.0522 50.6667 51.3739 50.6667 50.6667V49.3333C50.6611 45.5977 49.5359 41.9495 47.4363 38.8598C45.3367 35.77 42.3591 33.3806 38.888 32C42.3591 30.6194 45.3367 28.23 47.4363 25.1402C49.5359 22.0505 50.6611 18.4023 50.6667 14.6667ZM10.6667 2.66667H53.3333V8H10.6667V2.66667ZM53.3333 61.3333H10.6667V56H53.3333V61.3333ZM48 49.3333V50.6667C48.0055 51.6057 48.2614 52.5262 48.7413 53.3333H15.2587C15.7386 52.5262 15.9945 51.6057 16 50.6667V49.3333C16.0059 45.3236 17.5159 41.462 20.2316 38.512C22.9474 35.562 26.6711 33.7382 30.6667 33.4013V36H33.3333V33.4013C37.3289 33.7382 41.0526 35.562 43.7684 38.512C46.4841 41.462 47.9941 45.3236 48 49.3333ZM33.3333 30.5987V28H30.6667V30.5987C26.6711 30.2618 22.9474 28.438 20.2316 25.488C17.5159 22.538 16.0059 18.6764 16 14.6667V13.3333C15.9945 12.3943 15.7386 11.4738 15.2587 10.6667H48.7413C48.2614 11.4738 48.0055 12.3943 48 13.3333V14.6667C47.9941 18.6764 46.4841 22.538 43.7684 25.488C41.0526 28.438 37.3289 30.2618 33.3333 30.5987Z" fill="#223A52"/>
</svg>
