<svg width="64" height="64" viewBox="0 0 64 64" fill="none" xmlns="http://www.w3.org/2000/svg">
<g clip-path="url(#clip0_247_2474)">
<path d="M32 33.1117C36.0508 33.1117 45.5746 28.2369 45.5746 16.5558C45.5746 14.9264 45.535 13.3524 45.4006 11.8653C45.1802 8.93835 44.5807 6.34452 43.0881 4.35651C41.1738 1.65153 37.824 0 32 0C26.177 0 22.8276 1.65103 20.9133 4.355C19.4198 6.34318 18.8198 8.93801 18.5994 11.8658C18.4652 13.3528 18.4254 14.9266 18.4254 16.5558C18.4254 28.2369 27.9493 33.1117 32 33.1117ZM26.9683 5.47493C27.2642 4.9331 27.8309 4.59611 28.4471 4.59544C29.1577 4.59544 29.7658 5.03619 30.015 5.65728H33.9831C34.0668 5.44773 34.192 5.25531 34.3561 5.09093C34.6739 4.77191 35.0975 4.59577 35.5479 4.59527C36.1661 4.5951 36.7328 4.93024 37.0295 5.47006C37.0469 5.50163 37.0463 5.53958 37.0278 5.57064C37.0097 5.6017 36.9763 5.62068 36.9405 5.62068L35.4355 5.6232C35.409 5.68666 35.3585 5.8628 35.3591 6.28257C35.3598 6.70233 35.411 6.8783 35.4379 6.9416L36.9428 6.93925C36.9789 6.93942 37.0117 6.95839 37.0301 6.98928C37.0488 7.02018 37.0491 7.05846 37.0322 7.09003C36.736 7.63153 36.1693 7.96885 35.5531 7.96952L35.5507 7.96919C34.842 7.96919 34.2343 7.52877 33.9852 6.90735H30.017C29.9334 7.11689 29.8085 7.30948 29.6444 7.4737C29.3266 7.79272 28.903 7.96902 28.4523 7.96986H28.4496C27.8344 7.96986 27.2674 7.63472 26.9705 7.0949C26.9531 7.06333 26.9541 7.02505 26.9722 6.99415C26.9902 6.96326 27.0238 6.94395 27.0597 6.94395L28.5643 6.9416C28.5908 6.8783 28.6417 6.70216 28.6407 6.2824C28.64 5.86246 28.5888 5.6865 28.5619 5.6232L27.057 5.62571C27.0212 5.62538 26.9882 5.60657 26.9697 5.57568C26.9517 5.54478 26.951 5.50684 26.9683 5.47493ZM20.445 14.0231C20.6013 14.3653 21.2657 15.6803 22.2942 15.8035C23.4764 15.9453 25.4387 11.6166 32 11.6062C38.5611 11.6168 40.5236 15.9453 41.7059 15.8035C42.7343 15.6801 43.3987 14.3651 43.555 14.0231C43.5869 14.8613 43.5985 15.7097 43.5985 16.5558C43.5985 22.2656 41.0774 25.8034 38.9623 27.7657C36.2972 30.2383 33.3386 31.1358 32 31.1358C30.6614 31.1358 27.7026 30.2383 25.0378 27.7657C22.9226 25.8034 20.4015 22.2656 20.4015 16.5558C20.4015 15.7097 20.4131 14.8613 20.445 14.0231Z" fill="#F9A743"/>
<path d="M57.2017 50.0911C56.5087 45.7819 55.082 40.2311 52.2202 38.2582C50.2668 36.9114 43.4506 33.2697 40.5399 31.7147L40.4865 31.6863C40.1537 31.5085 39.7474 31.5441 39.4506 31.7772C37.9253 32.9745 36.2546 33.7815 34.4849 34.1754C34.1722 34.2451 33.9157 34.4672 33.802 34.7666L31.9999 39.5168L30.1977 34.7666C30.084 34.4672 29.8275 34.2449 29.5148 34.1754C27.7451 33.7815 26.0744 32.9745 24.5492 31.7772C24.2523 31.5441 23.846 31.5084 23.5132 31.6863C20.6363 33.2237 13.7346 36.9408 11.7881 38.2525C8.49376 40.4721 7.05346 48.5037 6.79824 50.0913C6.77289 50.2488 6.78749 50.4098 6.84072 50.5602C6.9371 50.8321 8.97532 56.0963 21.7136 58.017C22.827 59.9632 24.4901 61.5816 26.4788 62.6339C28.1682 63.5278 30.082 64.0003 32.0136 64.0003C32.7701 64.0003 33.5273 63.9276 34.2648 63.7842C36.8139 63.2882 39.1681 61.9336 40.8937 59.9696C41.424 59.3661 41.8882 58.7106 42.2828 58.0175C55.0239 56.097 57.0626 50.8321 57.159 50.5602C57.2124 50.4096 57.227 50.2484 57.2017 50.0911ZM42.1315 52.7288C42.0073 54.9829 41.1135 57.1576 39.6233 58.8531C38.1501 60.53 36.1337 61.6975 33.9419 62.124C33.3055 62.2479 32.6594 62.309 32.0138 62.309C30.3697 62.309 28.7297 61.9116 27.2699 61.139C25.3121 60.103 23.7184 58.4251 22.7872 56.415C21.8193 54.3254 21.5965 51.9215 22.1587 49.688C22.7017 47.5285 23.9711 45.5816 25.7165 44.2011C27.4973 42.7925 29.7293 42.0161 31.9997 42.0161C33.0147 42.0161 34.0287 42.1678 34.998 42.4683C37.1202 43.1257 38.9942 44.4924 40.2795 46.3031C41.6011 48.165 42.2571 50.4492 42.1315 52.7288Z" fill="#223A52"/>
<path d="M33.5917 52.1632C34.5403 52.3511 35.4835 52.6332 36.368 53.0256C37.2227 53.4047 37.9885 53.9397 38.7832 54.4246C38.8378 54.4584 38.893 54.4908 38.9482 54.5235C39.1999 53.7825 39.3384 52.9893 39.3384 52.1632C39.3384 51.3371 39.1999 50.544 38.9482 49.803C38.1341 50.2889 37.36 50.8425 36.497 51.2424C35.5773 51.6691 34.5853 51.9666 33.5917 52.1632Z" fill="#BDC4CB"/>
<path d="M38.7831 54.4246C38.6068 54.317 38.878 54.4829 38.7831 54.4246V54.4246Z" fill="#223A52"/>
<path d="M27.6321 53.0256C28.5168 52.6332 29.4596 52.3511 30.4084 52.1632C29.4001 51.9638 28.3917 51.6607 27.4601 51.2226C26.6142 50.8245 25.8526 50.2808 25.0518 49.8028C24.8001 50.5438 24.6616 51.3371 24.6616 52.1632C24.6616 52.9893 24.8001 53.7827 25.0518 54.5237C25.1069 54.4908 25.1623 54.4583 25.2167 54.4246C26.0116 53.9397 26.7779 53.4047 27.6321 53.0256Z" fill="#B4BCC4"/>
<path d="M25.2168 54.4246C25.1223 54.4829 25.3931 54.317 25.2168 54.4246V54.4246Z" fill="#223A52"/>
<path d="M33.3488 44.9508C33.373 45.9109 33.4783 46.8693 33.3989 47.8294C33.3127 48.8686 33.0763 49.9109 32.7408 50.8971C33.4326 50.1232 34.2231 49.4087 35.0836 48.8253C35.8839 48.2829 36.7741 47.9034 37.6254 47.4526C36.554 46.1743 35.0553 45.268 33.3488 44.9508Z" fill="#B4BCC4"/>
<path d="M31.2592 50.8969C30.9236 49.9109 30.6873 48.8686 30.601 47.8292C30.5219 46.8691 30.6272 45.9107 30.6512 44.9506C28.9448 45.2678 27.4462 46.1742 26.3746 47.4523C27.2402 47.9108 28.1452 48.2955 28.9559 48.8518C29.7999 49.4314 30.5772 50.1342 31.2592 50.8969Z" fill="#B4BCC4"/>
<path d="M30.601 56.4972C30.6875 55.4586 30.9226 54.4152 31.2592 53.4297C30.5668 54.2033 29.7766 54.9179 28.9161 55.5014C28.1162 56.0439 27.2263 56.4234 26.3746 56.8742C27.446 58.1521 28.9448 59.0583 30.6511 59.3755C30.627 58.4156 30.5219 57.457 30.601 56.4972Z" fill="#B4BCC4"/>
<path d="M32.741 53.4297C33.0776 54.4152 33.3129 55.4584 33.399 56.4972C33.4784 57.457 33.3733 58.4156 33.349 59.3757C35.0552 59.0585 36.554 58.1521 37.6254 56.8742C36.7602 56.4156 35.8553 56.0308 35.0448 55.4747C34.2001 54.8951 33.4233 54.1922 32.741 53.4297Z" fill="#B4BCC4"/>
</g>
<defs>
<clipPath id="clip0_247_2474">
<rect width="64" height="64" fill="white"/>
</clipPath>
</defs>
</svg>
